<svg xmlns="http://www.w3.org/2000/svg" xmlns:xlink="http://www.w3.org/1999/xlink" width="520" zoomAndPan="magnify" viewBox="0 0 390 389.999986" height="520" preserveAspectRatio="xMidYMid meet" version="1.0"><path fill="#a26d23" d="M 118.125 165.9375 L 118.125 184.6875 C 118.125 186.757812 119.804688 188.4375 121.875 188.4375 C 123.945312 188.4375 125.625 186.757812 125.625 184.6875 L 125.625 165.9375 C 125.625 163.867188 123.945312 162.1875 121.875 162.1875 C 119.804688 162.1875 118.125 163.867188 118.125 165.9375 Z M 118.125 165.9375 " fill-opacity="1" fill-rule="nonzero"/><path fill="#a26d23" d="M 133.125 169.6875 L 133.125 184.6875 C 133.125 186.757812 134.804688 188.4375 136.875 188.4375 C 138.945312 188.4375 140.625 186.757812 140.625 184.6875 L 140.625 169.6875 C 140.625 167.617188 138.945312 165.9375 136.875 165.9375 C 134.804688 165.9375 133.125 167.617188 133.125 169.6875 Z M 133.125 169.6875 " fill-opacity="1" fill-rule="nonzero"/><path fill="#a26d23" d="M 343.875 199.6875 L 343.746094 199.6875 C 345.804688 194.984375 346.875 189.898438 346.875 184.6875 C 346.875 164.011719 330.050781 147.1875 309.375 147.1875 C 293.453125 147.1875 279.605469 157.019531 274.222656 171.605469 C 267.683594 168.953125 260.140625 169.007812 253.492188 172.046875 C 247.03125 157.003906 232.339844 147.1875 215.625 147.1875 C 194.070312 147.1875 176.320312 163.808594 174.523438 184.90625 C 165.226562 186.046875 156.878906 191.546875 152.15625 199.6875 L 110.625 199.6875 L 110.625 169.6875 C 110.625 167.617188 108.945312 165.9375 106.875 165.9375 C 104.804688 165.9375 103.125 167.617188 103.125 169.6875 L 103.125 199.6875 L 58.125 199.6875 L 58.125 107.8125 C 58.125 94.371094 69.058594 83.4375 82.5 83.4375 C 95.941406 83.4375 106.875 94.371094 106.875 107.8125 L 106.875 121.152344 C 90.023438 123.023438 76.875 137.347656 76.875 154.6875 C 76.875 156.757812 78.554688 158.4375 80.625 158.4375 L 88.125 158.4375 L 88.125 173.4375 C 88.125 175.507812 89.804688 177.1875 91.875 177.1875 C 93.945312 177.1875 95.625 175.507812 95.625 173.4375 L 95.625 158.4375 C 99.765625 158.4375 135.785156 158.4375 140.640625 158.4375 C 142.832031 158.4375 144.582031 156.558594 144.375 154.328125 C 144.195312 137.148438 131.109375 123.007812 114.375 121.152344 L 114.375 107.8125 C 114.375 90.234375 100.074219 75.9375 82.5 75.9375 C 64.921875 75.9375 50.625 90.234375 50.625 107.8125 L 50.625 199.6875 L 43.875 199.6875 C 33.535156 199.6875 25.125 208.097656 25.125 218.4375 C 25.125 227.792969 32.011719 235.570312 40.980469 236.964844 L 65.203125 321.734375 C 68.640625 333.777344 79.792969 342.1875 92.320312 342.1875 L 110.625 342.1875 L 110.625 344.25 C 110.625 353.453125 118.109375 360.9375 127.3125 360.9375 L 146.4375 360.9375 C 155.640625 360.9375 163.125 353.453125 163.125 344.25 L 163.125 342.1875 L 234.375 342.1875 L 234.375 344.25 C 234.375 353.453125 241.859375 360.9375 251.0625 360.9375 L 270.1875 360.9375 C 279.390625 360.9375 286.875 353.453125 286.875 344.25 L 286.875 342.1875 L 295.429688 342.1875 C 307.953125 342.1875 319.105469 333.777344 322.546875 321.734375 L 346.765625 236.964844 C 355.738281 235.570312 362.625 227.792969 362.625 218.4375 C 362.625 208.097656 354.214844 199.6875 343.875 199.6875 Z M 136.609375 150.9375 L 84.640625 150.9375 C 86.46875 138.234375 97.421875 128.4375 110.625 128.4375 C 123.828125 128.4375 134.78125 138.234375 136.609375 150.9375 Z M 178.125 192.1875 C 180.195312 192.1875 181.875 190.507812 181.875 188.4375 C 181.875 169.828125 197.015625 154.6875 215.625 154.6875 C 230.578125 154.6875 243.554688 164.292969 247.910156 178.585938 C 248.652344 181.027344 251.566406 182.019531 253.644531 180.566406 C 259.925781 176.171875 268.164062 176.089844 274.488281 180.152344 C 276.664062 181.550781 279.578125 180.375 280.167969 177.851562 C 283.34375 164.210938 295.355469 154.6875 309.375 154.6875 C 325.917969 154.6875 339.375 168.144531 339.375 184.6875 C 339.375 189.992188 337.984375 195.136719 335.347656 199.6875 L 161.371094 199.6875 C 165.585938 195.007812 171.671875 192.1875 178.125 192.1875 Z M 332.476562 259.6875 L 55.273438 259.6875 L 48.847656 237.1875 L 338.902344 237.1875 Z M 155.625 344.25 C 155.625 349.316406 151.503906 353.4375 146.4375 353.4375 L 127.3125 353.4375 C 122.246094 353.4375 118.125 349.316406 118.125 344.25 L 118.125 342.1875 L 155.625 342.1875 Z M 279.375 344.25 C 279.375 349.316406 275.253906 353.4375 270.1875 353.4375 L 251.0625 353.4375 C 245.996094 353.4375 241.875 349.316406 241.875 344.25 L 241.875 342.1875 L 279.375 342.1875 Z M 315.335938 319.671875 C 312.808594 328.511719 304.621094 334.6875 295.429688 334.6875 C 281.128906 334.6875 102.089844 334.6875 92.320312 334.6875 C 83.125 334.6875 74.9375 328.511719 72.414062 319.671875 L 57.417969 267.1875 L 330.332031 267.1875 Z M 343.875 229.6875 L 43.875 229.6875 C 37.671875 229.6875 32.625 224.640625 32.625 218.4375 C 32.625 212.234375 37.671875 207.1875 43.875 207.1875 C 53.296875 207.1875 336.957031 207.1875 343.875 207.1875 C 350.078125 207.1875 355.125 212.234375 355.125 218.4375 C 355.125 224.640625 350.078125 229.6875 343.875 229.6875 Z M 343.875 229.6875 " fill-opacity="1" fill-rule="nonzero"/><path fill="#a26d23" d="M 181.875 98.4375 C 192.214844 98.4375 200.625 90.027344 200.625 79.6875 C 200.625 69.347656 192.214844 60.9375 181.875 60.9375 C 171.535156 60.9375 163.125 69.347656 163.125 79.6875 C 163.125 90.027344 171.535156 98.4375 181.875 98.4375 Z M 181.875 68.4375 C 188.078125 68.4375 193.125 73.484375 193.125 79.6875 C 193.125 85.890625 188.078125 90.9375 181.875 90.9375 C 175.671875 90.9375 170.625 85.890625 170.625 79.6875 C 170.625 73.484375 175.671875 68.4375 181.875 68.4375 Z M 181.875 68.4375 " fill-opacity="1" fill-rule="nonzero"/><path fill="#a26d23" d="M 335.625 132.1875 C 354.234375 132.1875 369.375 117.046875 369.375 98.4375 C 369.375 79.828125 354.234375 64.6875 335.625 64.6875 C 317.015625 64.6875 301.875 79.828125 301.875 98.4375 C 301.875 117.046875 317.015625 132.1875 335.625 132.1875 Z M 335.625 72.1875 C 350.097656 72.1875 361.875 83.964844 361.875 98.4375 C 361.875 112.910156 350.097656 124.6875 335.625 124.6875 C 321.152344 124.6875 309.375 112.910156 309.375 98.4375 C 309.375 83.964844 321.152344 72.1875 335.625 72.1875 Z M 335.625 72.1875 " fill-opacity="1" fill-rule="nonzero"/><path fill="#a26d23" d="M 313.125 38.4375 C 313.125 38.808594 313.089844 39.171875 313.015625 39.535156 C 312.945312 39.898438 312.839844 40.25 312.695312 40.589844 C 312.554688 40.929688 312.382812 41.253906 312.175781 41.5625 C 311.972656 41.871094 311.738281 42.152344 311.476562 42.414062 C 311.214844 42.675781 310.933594 42.910156 310.625 43.113281 C 310.316406 43.320312 309.992188 43.492188 309.652344 43.632812 C 309.3125 43.777344 308.960938 43.882812 308.597656 43.953125 C 308.234375 44.027344 307.871094 44.0625 307.5 44.0625 C 307.128906 44.0625 306.765625 44.027344 306.402344 43.953125 C 306.039062 43.882812 305.6875 43.777344 305.347656 43.632812 C 305.007812 43.492188 304.683594 43.320312 304.375 43.113281 C 304.066406 42.910156 303.785156 42.675781 303.523438 42.414062 C 303.261719 42.152344 303.027344 41.871094 302.824219 41.5625 C 302.617188 41.253906 302.445312 40.929688 302.304688 40.589844 C 302.160156 40.25 302.054688 39.898438 301.984375 39.535156 C 301.910156 39.171875 301.875 38.808594 301.875 38.4375 C 301.875 38.066406 301.910156 37.703125 301.984375 37.339844 C 302.054688 36.976562 302.160156 36.625 302.304688 36.285156 C 302.445312 35.945312 302.617188 35.621094 302.824219 35.3125 C 303.027344 35.003906 303.261719 34.722656 303.523438 34.460938 C 303.785156 34.199219 304.066406 33.964844 304.375 33.761719 C 304.683594 33.554688 305.007812 33.382812 305.347656 33.242188 C 305.6875 33.097656 306.039062 32.992188 306.402344 32.921875 C 306.765625 32.847656 307.128906 32.8125 307.5 32.8125 C 307.871094 32.8125 308.234375 32.847656 308.597656 32.921875 C 308.960938 32.992188 309.3125 33.097656 309.652344 33.242188 C 309.992188 33.382812 310.316406 33.554688 310.625 33.761719 C 310.933594 33.964844 311.214844 34.199219 311.476562 34.460938 C 311.738281 34.722656 311.972656 35.003906 312.175781 35.3125 C 312.382812 35.621094 312.554688 35.945312 312.695312 36.285156 C 312.839844 36.625 312.945312 36.976562 313.015625 37.339844 C 313.089844 37.703125 313.125 38.066406 313.125 38.4375 Z M 313.125 38.4375 " fill-opacity="1" fill-rule="nonzero"/><path fill="#a26d23" d="M 223.125 62.8125 C 223.125 63.183594 223.089844 63.546875 223.015625 63.910156 C 222.945312 64.273438 222.839844 64.625 222.695312 64.964844 C 222.554688 65.304688 222.382812 65.628906 222.175781 65.9375 C 221.972656 66.246094 221.738281 66.527344 221.476562 66.789062 C 221.214844 67.050781 220.933594 67.285156 220.625 67.488281 C 220.316406 67.695312 219.992188 67.867188 219.652344 68.007812 C 219.3125 68.152344 218.960938 68.257812 218.597656 68.328125 C 218.234375 68.402344 217.871094 68.4375 217.5 68.4375 C 217.128906 68.4375 216.765625 68.402344 216.402344 68.328125 C 216.039062 68.257812 215.6875 68.152344 215.347656 68.007812 C 215.007812 67.867188 214.683594 67.695312 214.375 67.488281 C 214.066406 67.285156 213.785156 67.050781 213.523438 66.789062 C 213.261719 66.527344 213.027344 66.246094 212.824219 65.9375 C 212.617188 65.628906 212.445312 65.304688 212.304688 64.964844 C 212.160156 64.625 212.054688 64.273438 211.984375 63.910156 C 211.910156 63.546875 211.875 63.183594 211.875 62.8125 C 211.875 62.441406 211.910156 62.078125 211.984375 61.714844 C 212.054688 61.351562 212.160156 61 212.304688 60.660156 C 212.445312 60.320312 212.617188 59.996094 212.824219 59.6875 C 213.027344 59.378906 213.261719 59.097656 213.523438 58.835938 C 213.785156 58.574219 214.066406 58.339844 214.375 58.136719 C 214.683594 57.929688 215.007812 57.757812 215.347656 57.617188 C 215.6875 57.472656 216.039062 57.367188 216.402344 57.296875 C 216.765625 57.222656 217.128906 57.1875 217.5 57.1875 C 217.871094 57.1875 218.234375 57.222656 218.597656 57.296875 C 218.960938 57.367188 219.3125 57.472656 219.652344 57.617188 C 219.992188 57.757812 220.316406 57.929688 220.625 58.136719 C 220.933594 58.339844 221.214844 58.574219 221.476562 58.835938 C 221.738281 59.097656 221.972656 59.378906 222.175781 59.6875 C 222.382812 59.996094 222.554688 60.320312 222.695312 60.660156 C 222.839844 61 222.945312 61.351562 223.015625 61.714844 C 223.089844 62.078125 223.125 62.441406 223.125 62.8125 Z M 223.125 62.8125 " fill-opacity="1" fill-rule="nonzero"/><path fill="#a26d23" d="M 361.875 156.5625 C 361.875 156.933594 361.839844 157.296875 361.765625 157.660156 C 361.695312 158.023438 361.589844 158.375 361.445312 158.714844 C 361.304688 159.054688 361.132812 159.378906 360.925781 159.6875 C 360.722656 159.996094 360.488281 160.277344 360.226562 160.539062 C 359.964844 160.800781 359.683594 161.035156 359.375 161.238281 C 359.066406 161.445312 358.742188 161.617188 358.402344 161.757812 C 358.0625 161.902344 357.710938 162.007812 357.347656 162.078125 C 356.984375 162.152344 356.621094 162.1875 356.25 162.1875 C 355.878906 162.1875 355.515625 162.152344 355.152344 162.078125 C 354.789062 162.007812 354.4375 161.902344 354.097656 161.757812 C 353.757812 161.617188 353.433594 161.445312 353.125 161.238281 C 352.816406 161.035156 352.535156 160.800781 352.273438 160.539062 C 352.011719 160.277344 351.777344 159.996094 351.574219 159.6875 C 351.367188 159.378906 351.195312 159.054688 351.054688 158.714844 C 350.910156 158.375 350.804688 158.023438 350.734375 157.660156 C 350.660156 157.296875 350.625 156.933594 350.625 156.5625 C 350.625 156.191406 350.660156 155.828125 350.734375 155.464844 C 350.804688 155.101562 350.910156 154.75 351.054688 154.410156 C 351.195312 154.070312 351.367188 153.746094 351.574219 153.4375 C 351.777344 153.128906 352.011719 152.847656 352.273438 152.585938 C 352.535156 152.324219 352.816406 152.089844 353.125 151.886719 C 353.433594 151.679688 353.757812 151.507812 354.097656 151.367188 C 354.4375 151.222656 354.789062 151.117188 355.152344 151.046875 C 355.515625 150.972656 355.878906 150.9375 356.25 150.9375 C 356.621094 150.9375 356.984375 150.972656 357.347656 151.046875 C 357.710938 151.117188 358.0625 151.222656 358.402344 151.367188 C 358.742188 151.507812 359.066406 151.679688 359.375 151.886719 C 359.683594 152.089844 359.964844 152.324219 360.226562 152.585938 C 360.488281 152.847656 360.722656 153.128906 360.925781 153.4375 C 361.132812 153.746094 361.304688 154.070312 361.445312 154.410156 C 361.589844 154.75 361.695312 155.101562 361.765625 155.464844 C 361.839844 155.828125 361.875 156.191406 361.875 156.5625 Z M 361.875 156.5625 " fill-opacity="1" fill-rule="nonzero"/><path fill="#a26d23" d="M 268.125 115.3125 C 268.125 115.683594 268.089844 116.046875 268.015625 116.410156 C 267.945312 116.773438 267.839844 117.125 267.695312 117.464844 C 267.554688 117.804688 267.382812 118.128906 267.175781 118.4375 C 266.972656 118.746094 266.738281 119.027344 266.476562 119.289062 C 266.214844 119.550781 265.933594 119.785156 265.625 119.988281 C 265.316406 120.195312 264.992188 120.367188 264.652344 120.507812 C 264.3125 120.652344 263.960938 120.757812 263.597656 120.828125 C 263.234375 120.902344 262.871094 120.9375 262.5 120.9375 C 262.128906 120.9375 261.765625 120.902344 261.402344 120.828125 C 261.039062 120.757812 260.6875 120.652344 260.347656 120.507812 C 260.007812 120.367188 259.683594 120.195312 259.375 119.988281 C 259.066406 119.785156 258.785156 119.550781 258.523438 119.289062 C 258.261719 119.027344 258.027344 118.746094 257.824219 118.4375 C 257.617188 118.128906 257.445312 117.804688 257.304688 117.464844 C 257.160156 117.125 257.054688 116.773438 256.984375 116.410156 C 256.910156 116.046875 256.875 115.683594 256.875 115.3125 C 256.875 114.941406 256.910156 114.578125 256.984375 114.214844 C 257.054688 113.851562 257.160156 113.5 257.304688 113.160156 C 257.445312 112.820312 257.617188 112.496094 257.824219 112.1875 C 258.027344 111.878906 258.261719 111.597656 258.523438 111.335938 C 258.785156 111.074219 259.066406 110.839844 259.375 110.636719 C 259.683594 110.429688 260.007812 110.257812 260.347656 110.117188 C 260.6875 109.972656 261.039062 109.867188 261.402344 109.796875 C 261.765625 109.722656 262.128906 109.6875 262.5 109.6875 C 262.871094 109.6875 263.234375 109.722656 263.597656 109.796875 C 263.960938 109.867188 264.3125 109.972656 264.652344 110.117188 C 264.992188 110.257812 265.316406 110.429688 265.625 110.636719 C 265.933594 110.839844 266.214844 111.074219 266.476562 111.335938 C 266.738281 111.597656 266.972656 111.878906 267.175781 112.1875 C 267.382812 112.496094 267.554688 112.820312 267.695312 113.160156 C 267.839844 113.5 267.945312 113.851562 268.015625 114.214844 C 268.089844 114.578125 268.125 114.941406 268.125 115.3125 Z M 268.125 115.3125 " fill-opacity="1" fill-rule="nonzero"/><path fill="#a26d23" d="M 181.875 130.3125 C 181.875 130.683594 181.839844 131.046875 181.765625 131.410156 C 181.695312 131.773438 181.589844 132.125 181.445312 132.464844 C 181.304688 132.804688 181.132812 133.128906 180.925781 133.4375 C 180.722656 133.746094 180.488281 134.027344 180.226562 134.289062 C 179.964844 134.550781 179.683594 134.785156 179.375 134.988281 C 179.066406 135.195312 178.742188 135.367188 178.402344 135.507812 C 178.0625 135.652344 177.710938 135.757812 177.347656 135.828125 C 176.984375 135.902344 176.621094 135.9375 176.25 135.9375 C 175.878906 135.9375 175.515625 135.902344 175.152344 135.828125 C 174.789062 135.757812 174.4375 135.652344 174.097656 135.507812 C 173.757812 135.367188 173.433594 135.195312 173.125 134.988281 C 172.816406 134.785156 172.535156 134.550781 172.273438 134.289062 C 172.011719 134.027344 171.777344 133.746094 171.574219 133.4375 C 171.367188 133.128906 171.195312 132.804688 171.054688 132.464844 C 170.910156 132.125 170.804688 131.773438 170.734375 131.410156 C 170.660156 131.046875 170.625 130.683594 170.625 130.3125 C 170.625 129.941406 170.660156 129.578125 170.734375 129.214844 C 170.804688 128.851562 170.910156 128.5 171.054688 128.160156 C 171.195312 127.820312 171.367188 127.496094 171.574219 127.1875 C 171.777344 126.878906 172.011719 126.597656 172.273438 126.335938 C 172.535156 126.074219 172.816406 125.839844 173.125 125.636719 C 173.433594 125.429688 173.757812 125.257812 174.097656 125.117188 C 174.4375 124.972656 174.789062 124.867188 175.152344 124.796875 C 175.515625 124.722656 175.878906 124.6875 176.25 124.6875 C 176.621094 124.6875 176.984375 124.722656 177.347656 124.796875 C 177.710938 124.867188 178.0625 124.972656 178.402344 125.117188 C 178.742188 125.257812 179.066406 125.429688 179.375 125.636719 C 179.683594 125.839844 179.964844 126.074219 180.226562 126.335938 C 180.488281 126.597656 180.722656 126.878906 180.925781 127.1875 C 181.132812 127.496094 181.304688 127.820312 181.445312 128.160156 C 181.589844 128.5 181.695312 128.851562 181.765625 129.214844 C 181.839844 129.578125 181.875 129.941406 181.875 130.3125 Z M 181.875 130.3125 " fill-opacity="1" fill-rule="nonzero"/><path fill="#a26d23" d="M 133.125 40.3125 C 133.125 40.683594 133.089844 41.046875 133.015625 41.410156 C 132.945312 41.773438 132.839844 42.125 132.695312 42.464844 C 132.554688 42.804688 132.382812 43.128906 132.175781 43.4375 C 131.972656 43.746094 131.738281 44.027344 131.476562 44.289062 C 131.214844 44.550781 130.933594 44.785156 130.625 44.988281 C 130.316406 45.195312 129.992188 45.367188 129.652344 45.507812 C 129.3125 45.652344 128.960938 45.757812 128.597656 45.828125 C 128.234375 45.902344 127.871094 45.9375 127.5 45.9375 C 127.128906 45.9375 126.765625 45.902344 126.402344 45.828125 C 126.039062 45.757812 125.6875 45.652344 125.347656 45.507812 C 125.007812 45.367188 124.683594 45.195312 124.375 44.988281 C 124.066406 44.785156 123.785156 44.550781 123.523438 44.289062 C 123.261719 44.027344 123.027344 43.746094 122.824219 43.4375 C 122.617188 43.128906 122.445312 42.804688 122.304688 42.464844 C 122.160156 42.125 122.054688 41.773438 121.984375 41.410156 C 121.910156 41.046875 121.875 40.683594 121.875 40.3125 C 121.875 39.941406 121.910156 39.578125 121.984375 39.214844 C 122.054688 38.851562 122.160156 38.5 122.304688 38.160156 C 122.445312 37.820312 122.617188 37.496094 122.824219 37.1875 C 123.027344 36.878906 123.261719 36.597656 123.523438 36.335938 C 123.785156 36.074219 124.066406 35.839844 124.375 35.636719 C 124.683594 35.429688 125.007812 35.257812 125.347656 35.117188 C 125.6875 34.972656 126.039062 34.867188 126.402344 34.796875 C 126.765625 34.722656 127.128906 34.6875 127.5 34.6875 C 127.871094 34.6875 128.234375 34.722656 128.597656 34.796875 C 128.960938 34.867188 129.3125 34.972656 129.652344 35.117188 C 129.992188 35.257812 130.316406 35.429688 130.625 35.636719 C 130.933594 35.839844 131.214844 36.074219 131.476562 36.335938 C 131.738281 36.597656 131.972656 36.878906 132.175781 37.1875 C 132.382812 37.496094 132.554688 37.820312 132.695312 38.160156 C 132.839844 38.5 132.945312 38.851562 133.015625 39.214844 C 133.089844 39.578125 133.125 39.941406 133.125 40.3125 Z M 133.125 40.3125 " fill-opacity="1" fill-rule="nonzero"/><path fill="#a26d23" d="M 35.625 111.5625 C 35.625 111.933594 35.589844 112.296875 35.515625 112.660156 C 35.445312 113.023438 35.339844 113.375 35.195312 113.714844 C 35.054688 114.054688 34.882812 114.378906 34.675781 114.6875 C 34.472656 114.996094 34.238281 115.277344 33.976562 115.539062 C 33.714844 115.800781 33.433594 116.035156 33.125 116.238281 C 32.816406 116.445312 32.492188 116.617188 32.152344 116.757812 C 31.8125 116.902344 31.460938 117.007812 31.097656 117.078125 C 30.734375 117.152344 30.371094 117.1875 30 117.1875 C 29.628906 117.1875 29.265625 117.152344 28.902344 117.078125 C 28.539062 117.007812 28.1875 116.902344 27.847656 116.757812 C 27.507812 116.617188 27.183594 116.445312 26.875 116.238281 C 26.566406 116.035156 26.285156 115.800781 26.023438 115.539062 C 25.761719 115.277344 25.527344 114.996094 25.324219 114.6875 C 25.117188 114.378906 24.945312 114.054688 24.804688 113.714844 C 24.660156 113.375 24.554688 113.023438 24.484375 112.660156 C 24.410156 112.296875 24.375 111.933594 24.375 111.5625 C 24.375 111.191406 24.410156 110.828125 24.484375 110.464844 C 24.554688 110.101562 24.660156 109.75 24.804688 109.410156 C 24.945312 109.070312 25.117188 108.746094 25.324219 108.4375 C 25.527344 108.128906 25.761719 107.847656 26.023438 107.585938 C 26.285156 107.324219 26.566406 107.089844 26.875 106.886719 C 27.183594 106.679688 27.507812 106.507812 27.847656 106.367188 C 28.1875 106.222656 28.539062 106.117188 28.902344 106.046875 C 29.265625 105.972656 29.628906 105.9375 30 105.9375 C 30.371094 105.9375 30.734375 105.972656 31.097656 106.046875 C 31.460938 106.117188 31.8125 106.222656 32.152344 106.367188 C 32.492188 106.507812 32.816406 106.679688 33.125 106.886719 C 33.433594 107.089844 33.714844 107.324219 33.976562 107.585938 C 34.238281 107.847656 34.472656 108.128906 34.675781 108.4375 C 34.882812 108.746094 35.054688 109.070312 35.195312 109.410156 C 35.339844 109.75 35.445312 110.101562 35.515625 110.464844 C 35.589844 110.828125 35.625 111.191406 35.625 111.5625 Z M 35.625 111.5625 " fill-opacity="1" fill-rule="nonzero"/></svg>