<svg xmlns="http://www.w3.org/2000/svg" xmlns:xlink="http://www.w3.org/1999/xlink" width="520" zoomAndPan="magnify" viewBox="0 0 390 389.999986" height="520" preserveAspectRatio="xMidYMid meet" version="1.0"><path fill="#a26d23" d="M 180 330 L 180 240 L 225 240 L 225 285 L 345 285 L 345 360 L 360 360 L 360 270 L 240 270 L 240 225 L 360 225 L 360 135 L 60 135 L 60 45 L 105 45 L 105 90 L 210 90 L 210 45 L 255 45 L 255 90 L 360 90 L 360 30 L 330 30 L 330 75 L 285 75 L 285 30 L 180 30 L 180 75 L 135 75 L 135 30 L 30 30 L 30 165 L 285 165 L 285 210 L 90 210 L 90 270 L 45 270 L 45 210 L 30 210 L 30 285 L 105 285 L 105 240 L 150 240 L 150 330 L 30 330 L 30 360 L 300 360 L 300 330 Z M 180 330 " fill-opacity="1" fill-rule="nonzero"/><path fill="#a26d23" d="M 0 0 L 0 390 L 255 390 L 255 375 L 15 375 L 15 315 L 135 315 L 135 255 L 120 255 L 120 300 L 15 300 L 15 195 L 60 195 L 60 255 L 75 255 L 75 195 L 270 195 L 270 180 L 15 180 L 15 15 L 150 15 L 150 60 L 165 60 L 165 15 L 300 15 L 300 60 L 315 60 L 315 15 L 375 15 L 375 105 L 240 105 L 240 60 L 225 60 L 225 105 L 90 105 L 90 60 L 75 60 L 75 120 L 375 120 L 375 240 L 255 240 L 255 255 L 375 255 L 375 375 L 330 375 L 330 300 L 210 300 L 210 255 L 195 255 L 195 315 L 315 315 L 315 390 L 390 390 L 390 0 Z M 0 0 " fill-opacity="1" fill-rule="nonzero"/></svg>