<svg xmlns="http://www.w3.org/2000/svg" xmlns:xlink="http://www.w3.org/1999/xlink" width="520" zoomAndPan="magnify" viewBox="0 0 390 389.999986" height="520" preserveAspectRatio="xMidYMid meet" version="1.0"><path fill="#a26d23" d="M 274.21875 24.375 L 274.21875 97.5 L 365.625 97.5 L 365.625 24.375 Z M 298.59375 73.125 L 286.40625 73.125 L 286.40625 48.75 L 298.59375 48.75 Z M 298.59375 73.125 " fill-opacity="1" fill-rule="nonzero"/><path fill="#a26d23" d="M 170.625 97.5 L 262.03125 97.5 L 262.03125 24.375 L 170.625 24.375 Z M 182.8125 48.75 L 195 48.75 L 195 73.125 L 182.8125 73.125 Z M 182.8125 48.75 " fill-opacity="1" fill-rule="nonzero"/><path fill="#a26d23" d="M 134.0625 109.261719 L 134.0625 24.375 L 48.75 24.375 L 48.75 109.6875 C 48.746094 111.554688 48.21875 113.261719 47.164062 114.804688 L 24.375 148.140625 L 24.375 158.4375 L 158.4375 158.4375 L 158.4375 148.140625 L 135.648438 114.378906 C 134.59375 112.835938 134.0625 111.128906 134.0625 109.261719 Z M 134.0625 109.261719 " fill-opacity="1" fill-rule="nonzero"/><path fill="#a26d23" d="M 134.0625 201.09375 L 140.15625 201.09375 L 140.15625 213.28125 L 134.0625 213.28125 Z M 134.0625 201.09375 " fill-opacity="1" fill-rule="nonzero"/><path fill="#a26d23" d="M 42.65625 201.09375 L 48.75 201.09375 L 48.75 213.28125 L 42.65625 213.28125 Z M 42.65625 201.09375 " fill-opacity="1" fill-rule="nonzero"/><path fill="#a26d23" d="M 67.03125 201.09375 L 115.78125 201.09375 L 115.78125 225.46875 L 67.03125 225.46875 Z M 67.03125 201.09375 " fill-opacity="1" fill-rule="nonzero"/><path fill="#a26d23" d="M 170.625 365.625 L 255.9375 365.625 L 255.9375 304.6875 L 170.625 304.6875 Z M 201.09375 322.96875 L 225.46875 322.96875 L 225.46875 335.15625 L 201.09375 335.15625 Z M 201.09375 322.96875 " fill-opacity="1" fill-rule="nonzero"/><path fill="#a26d23" d="M 268.125 207.1875 L 365.625 207.1875 L 365.625 134.0625 L 268.125 134.0625 Z M 280.3125 152.34375 L 292.5 152.34375 L 292.5 176.71875 L 280.3125 176.71875 Z M 280.3125 152.34375 " fill-opacity="1" fill-rule="nonzero"/><path fill="#a26d23" d="M 54.84375 237.65625 L 24.375 237.65625 L 24.375 365.625 L 158.4375 365.625 L 158.4375 237.65625 Z M 109.6875 249.84375 L 121.875 249.84375 L 121.875 262.03125 L 109.6875 262.03125 Z M 60.9375 249.84375 L 73.125 249.84375 L 73.125 262.03125 L 60.9375 262.03125 Z M 36.5625 249.84375 L 48.75 249.84375 L 48.75 262.03125 L 36.5625 262.03125 Z M 146.25 353.4375 L 36.5625 353.4375 L 36.5625 274.21875 L 146.25 274.21875 Z M 134.0625 249.84375 L 146.25 249.84375 L 146.25 262.03125 L 134.0625 262.03125 Z M 134.0625 249.84375 " fill-opacity="1" fill-rule="nonzero"/><path fill="#a26d23" d="M 48.75 286.40625 L 134.0625 286.40625 L 134.0625 341.25 L 48.75 341.25 Z M 48.75 286.40625 " fill-opacity="1" fill-rule="nonzero"/><path fill="#a26d23" d="M 268.125 225.46875 L 268.125 365.625 L 365.625 365.625 L 365.625 219.375 L 268.125 219.375 Z M 280.3125 237.65625 L 292.5 237.65625 L 292.5 262.03125 L 280.3125 262.03125 Z M 280.3125 237.65625 " fill-opacity="1" fill-rule="nonzero"/><path fill="#a26d23" d="M 170.625 292.5 L 255.9375 292.5 L 255.9375 237.65625 L 170.625 237.65625 Z M 201.09375 255.9375 L 225.46875 255.9375 L 225.46875 268.125 L 201.09375 268.125 Z M 201.09375 255.9375 " fill-opacity="1" fill-rule="nonzero"/><path fill="#a26d23" d="M 243.75 219.375 L 243.75 188.90625 C 243.75 188.308594 243.71875 187.710938 243.660156 187.113281 C 243.601562 186.519531 243.515625 185.925781 243.398438 185.339844 C 243.28125 184.753906 243.136719 184.171875 242.960938 183.597656 C 242.789062 183.027344 242.585938 182.464844 242.359375 181.910156 C 242.128906 181.355469 241.875 180.816406 241.589844 180.289062 C 241.308594 179.761719 241 179.246094 240.667969 178.75 C 240.335938 178.25 239.980469 177.773438 239.601562 177.308594 C 239.21875 176.847656 238.820312 176.402344 238.394531 175.980469 C 237.972656 175.554688 237.527344 175.15625 237.066406 174.773438 C 236.601562 174.394531 236.125 174.039062 235.625 173.707031 C 235.128906 173.375 234.613281 173.066406 234.085938 172.785156 C 233.558594 172.5 233.019531 172.246094 232.464844 172.015625 C 231.910156 171.789062 231.347656 171.585938 230.777344 171.414062 C 230.203125 171.238281 229.621094 171.09375 229.035156 170.976562 C 228.449219 170.859375 227.855469 170.773438 227.261719 170.714844 C 226.664062 170.65625 226.066406 170.625 225.46875 170.625 C 224.871094 170.625 224.273438 170.65625 223.675781 170.714844 C 223.082031 170.773438 222.488281 170.859375 221.902344 170.976562 C 221.316406 171.09375 220.734375 171.238281 220.160156 171.414062 C 219.589844 171.585938 219.027344 171.789062 218.472656 172.015625 C 217.917969 172.246094 217.378906 172.5 216.851562 172.785156 C 216.324219 173.066406 215.808594 173.375 215.3125 173.707031 C 214.8125 174.039062 214.335938 174.394531 213.871094 174.773438 C 213.410156 175.15625 212.964844 175.554688 212.542969 175.980469 C 212.117188 176.402344 211.71875 176.847656 211.335938 177.308594 C 210.957031 177.773438 210.601562 178.25 210.269531 178.75 C 209.9375 179.246094 209.628906 179.761719 209.347656 180.289062 C 209.0625 180.816406 208.808594 181.355469 208.578125 181.910156 C 208.351562 182.464844 208.148438 183.027344 207.976562 183.597656 C 207.800781 184.171875 207.65625 184.753906 207.539062 185.339844 C 207.421875 185.925781 207.335938 186.519531 207.277344 187.113281 C 207.21875 187.710938 207.1875 188.308594 207.1875 188.90625 L 207.1875 201.09375 L 219.375 201.09375 L 219.375 188.90625 C 219.375 188.507812 219.414062 188.109375 219.492188 187.71875 C 219.570312 187.324219 219.6875 186.945312 219.839844 186.574219 C 219.992188 186.203125 220.179688 185.851562 220.402344 185.519531 C 220.625 185.1875 220.875 184.878906 221.160156 184.597656 C 221.441406 184.3125 221.75 184.0625 222.082031 183.839844 C 222.414062 183.617188 222.765625 183.429688 223.136719 183.277344 C 223.507812 183.125 223.886719 183.007812 224.28125 182.929688 C 224.671875 182.851562 225.070312 182.8125 225.46875 182.8125 C 225.867188 182.8125 226.265625 182.851562 226.65625 182.929688 C 227.050781 183.007812 227.429688 183.125 227.800781 183.277344 C 228.171875 183.429688 228.523438 183.617188 228.855469 183.839844 C 229.1875 184.0625 229.496094 184.3125 229.777344 184.597656 C 230.0625 184.878906 230.3125 185.1875 230.535156 185.519531 C 230.757812 185.851562 230.945312 186.203125 231.097656 186.574219 C 231.25 186.945312 231.367188 187.324219 231.445312 187.71875 C 231.523438 188.109375 231.5625 188.507812 231.5625 188.90625 L 231.5625 219.375 Z M 243.75 219.375 " fill-opacity="1" fill-rule="nonzero"/></svg>