<svg xmlns="http://www.w3.org/2000/svg" xmlns:xlink="http://www.w3.org/1999/xlink" width="520" zoomAndPan="magnify" viewBox="0 0 390 389.999986" height="520" preserveAspectRatio="xMidYMid meet" version="1.0"><path fill="#a26d23" d="M 376.03125 249.84375 L 365.625 249.84375 L 365.625 222.390625 C 365.632812 221.105469 365.582031 219.824219 365.464844 218.546875 C 365.347656 217.265625 365.171875 215.996094 364.929688 214.734375 C 364.6875 213.472656 364.386719 212.222656 364.023438 210.992188 C 363.660156 209.757812 363.238281 208.546875 362.757812 207.355469 C 362.273438 206.167969 361.734375 205 361.140625 203.863281 C 360.542969 202.726562 359.890625 201.621094 359.1875 200.546875 C 358.484375 199.472656 357.726562 198.433594 356.921875 197.433594 C 356.113281 196.433594 355.261719 195.476562 354.359375 194.558594 C 353.460938 193.644531 352.515625 192.773438 351.53125 191.949219 C 350.542969 191.125 349.519531 190.351562 348.460938 189.628906 C 347.398438 188.90625 346.304688 188.234375 345.175781 187.621094 C 344.046875 187.003906 342.894531 186.445312 341.710938 185.941406 C 340.527344 185.441406 339.324219 184.996094 338.097656 184.613281 C 336.871094 184.226562 335.632812 183.902344 334.375 183.640625 C 333.117188 183.378906 331.847656 183.175781 330.570312 183.039062 C 329.292969 182.902344 328.011719 182.824219 326.730469 182.8125 L 97.5 182.8125 L 97.5 95.472656 L 127.96875 95.472656 C 128.433594 95.472656 128.890625 95.417969 129.339844 95.3125 C 129.792969 95.210938 130.226562 95.054688 130.640625 94.851562 C 131.058594 94.648438 131.445312 94.402344 131.804688 94.109375 C 132.164062 93.820312 132.488281 93.492188 132.773438 93.125 C 133.058594 92.761719 133.296875 92.367188 133.492188 91.949219 C 133.6875 91.527344 133.835938 91.09375 133.929688 90.640625 C 134.027344 90.1875 134.070312 89.726562 134.0625 89.265625 C 134.054688 88.800781 133.992188 88.34375 133.878906 87.894531 L 117.609375 22.894531 C 117.445312 22.238281 117.179688 21.625 116.808594 21.054688 C 116.441406 20.488281 115.988281 19.996094 115.453125 19.578125 C 114.921875 19.160156 114.335938 18.839844 113.695312 18.617188 C 113.054688 18.394531 112.394531 18.285156 111.714844 18.28125 L 71.097656 18.28125 C 70.417969 18.28125 69.753906 18.390625 69.113281 18.609375 C 68.46875 18.832031 67.878906 19.152344 67.34375 19.570312 C 66.808594 19.988281 66.355469 20.480469 65.984375 21.050781 C 65.613281 21.621094 65.34375 22.234375 65.179688 22.894531 L 48.933594 87.894531 C 48.820312 88.34375 48.757812 88.800781 48.75 89.265625 C 48.742188 89.726562 48.785156 90.1875 48.882812 90.640625 C 48.976562 91.09375 49.125 91.527344 49.320312 91.949219 C 49.515625 92.367188 49.753906 92.761719 50.039062 93.125 C 50.324219 93.492188 50.648438 93.820312 51.007812 94.109375 C 51.367188 94.402344 51.753906 94.648438 52.171875 94.851562 C 52.585938 95.054688 53.019531 95.210938 53.472656 95.3125 C 53.921875 95.417969 54.378906 95.472656 54.84375 95.472656 L 85.3125 95.472656 L 85.3125 182.8125 L 57.175781 182.8125 C 55.894531 182.824219 54.613281 182.902344 53.335938 183.039062 C 52.058594 183.175781 50.789062 183.378906 49.53125 183.640625 C 48.273438 183.902344 47.035156 184.226562 45.808594 184.613281 C 44.582031 184.996094 43.378906 185.441406 42.195312 185.941406 C 41.011719 186.445312 39.859375 187.003906 38.730469 187.621094 C 37.601562 188.234375 36.507812 188.90625 35.445312 189.628906 C 34.386719 190.351562 33.363281 191.125 32.375 191.949219 C 31.390625 192.773438 30.445312 193.644531 29.546875 194.558594 C 28.644531 195.476562 27.792969 196.433594 26.984375 197.433594 C 26.179688 198.433594 25.421875 199.472656 24.71875 200.546875 C 24.015625 201.621094 23.363281 202.726562 22.765625 203.863281 C 22.171875 205 21.632812 206.167969 21.148438 207.355469 C 20.667969 208.546875 20.246094 209.757812 19.882812 210.992188 C 19.519531 212.222656 19.21875 213.472656 18.976562 214.734375 C 18.734375 215.996094 18.558594 217.265625 18.441406 218.546875 C 18.324219 219.824219 18.273438 221.105469 18.28125 222.390625 L 18.28125 249.84375 L 13.96875 249.84375 C 13.050781 249.84375 12.140625 249.933594 11.242188 250.113281 C 10.34375 250.292969 9.472656 250.558594 8.625 250.910156 C 7.777344 251.261719 6.972656 251.691406 6.210938 252.203125 C 5.449219 252.710938 4.742188 253.289062 4.09375 253.9375 C 3.445312 254.585938 2.867188 255.292969 2.359375 256.054688 C 1.847656 256.816406 1.417969 257.621094 1.066406 258.46875 C 0.714844 259.316406 0.449219 260.1875 0.269531 261.085938 C 0.0898438 261.984375 0 262.894531 0 263.8125 L 0 341.25 C 0 341.648438 0.0390625 342.046875 0.117188 342.4375 C 0.195312 342.832031 0.3125 343.210938 0.464844 343.582031 C 0.617188 343.953125 0.804688 344.304688 1.027344 344.636719 C 1.25 344.96875 1.5 345.277344 1.785156 345.558594 C 2.066406 345.84375 2.375 346.09375 2.707031 346.316406 C 3.039062 346.539062 3.390625 346.726562 3.761719 346.878906 C 4.132812 347.03125 4.511719 347.148438 4.90625 347.226562 C 5.296875 347.304688 5.695312 347.34375 6.09375 347.34375 L 18.28125 347.34375 L 18.28125 356.855469 C 18.28125 357.832031 18.378906 358.796875 18.570312 359.753906 C 18.761719 360.710938 19.042969 361.640625 19.417969 362.539062 C 19.792969 363.441406 20.25 364.296875 20.792969 365.109375 C 21.332031 365.921875 21.949219 366.671875 22.640625 367.359375 C 23.328125 368.050781 24.078125 368.667969 24.890625 369.207031 C 25.703125 369.75 26.558594 370.207031 27.460938 370.582031 C 28.359375 370.957031 29.289062 371.238281 30.246094 371.429688 C 31.203125 371.621094 32.167969 371.71875 33.144531 371.71875 L 356.855469 371.71875 C 357.832031 371.71875 358.796875 371.621094 359.753906 371.429688 C 360.710938 371.238281 361.640625 370.957031 362.539062 370.582031 C 363.441406 370.207031 364.296875 369.75 365.109375 369.207031 C 365.921875 368.667969 366.671875 368.050781 367.359375 367.359375 C 368.050781 366.671875 368.667969 365.921875 369.207031 365.109375 C 369.75 364.296875 370.207031 363.441406 370.582031 362.539062 C 370.957031 361.640625 371.238281 360.710938 371.429688 359.753906 C 371.621094 358.796875 371.71875 357.832031 371.71875 356.855469 L 371.71875 347.34375 L 383.90625 347.34375 C 384.304688 347.34375 384.703125 347.304688 385.09375 347.226562 C 385.488281 347.148438 385.867188 347.03125 386.238281 346.878906 C 386.609375 346.726562 386.960938 346.539062 387.292969 346.316406 C 387.625 346.09375 387.933594 345.84375 388.214844 345.558594 C 388.496094 345.277344 388.75 344.96875 388.972656 344.636719 C 389.195312 344.304688 389.382812 343.953125 389.535156 343.582031 C 389.6875 343.210938 389.804688 342.832031 389.882812 342.4375 C 389.960938 342.046875 390 341.648438 390 341.25 L 390 263.8125 C 390 262.894531 389.910156 261.984375 389.730469 261.085938 C 389.550781 260.1875 389.285156 259.316406 388.933594 258.46875 C 388.582031 257.621094 388.152344 256.816406 387.640625 256.054688 C 387.132812 255.292969 386.554688 254.585938 385.90625 253.9375 C 385.257812 253.289062 384.550781 252.710938 383.789062 252.203125 C 383.027344 251.691406 382.222656 251.261719 381.375 250.910156 C 380.527344 250.558594 379.65625 250.292969 378.757812 250.113281 C 377.859375 249.933594 376.949219 249.84375 376.03125 249.84375 Z M 62.648438 83.285156 L 75.847656 30.46875 L 106.964844 30.46875 L 120.164062 83.285156 Z M 30.261719 222.390625 C 30.253906 221.503906 30.292969 220.613281 30.371094 219.730469 C 30.453125 218.84375 30.578125 217.964844 30.742188 217.09375 C 30.910156 216.21875 31.117188 215.355469 31.371094 214.503906 C 31.621094 213.648438 31.914062 212.8125 32.246094 211.988281 C 32.582031 211.164062 32.953125 210.359375 33.367188 209.570312 C 33.777344 208.78125 34.230469 208.015625 34.714844 207.273438 C 35.203125 206.53125 35.726562 205.8125 36.285156 205.121094 C 36.84375 204.429688 37.433594 203.765625 38.058594 203.132812 C 38.679688 202.496094 39.332031 201.894531 40.015625 201.324219 C 40.695312 200.753906 41.40625 200.21875 42.140625 199.71875 C 42.875 199.21875 43.632812 198.753906 44.414062 198.328125 C 45.191406 197.902344 45.992188 197.515625 46.808594 197.167969 C 47.628906 196.820312 48.460938 196.511719 49.308594 196.246094 C 50.15625 195.980469 51.015625 195.757812 51.886719 195.574219 C 52.757812 195.390625 53.632812 195.253906 54.519531 195.15625 C 55.402344 195.0625 56.289062 195.007812 57.175781 195 L 326.730469 195 C 327.617188 195.007812 328.503906 195.0625 329.386719 195.15625 C 330.273438 195.253906 331.148438 195.390625 332.019531 195.574219 C 332.890625 195.757812 333.75 195.980469 334.597656 196.246094 C 335.445312 196.511719 336.277344 196.820312 337.097656 197.167969 C 337.914062 197.515625 338.714844 197.902344 339.492188 198.328125 C 340.273438 198.753906 341.03125 199.21875 341.765625 199.71875 C 342.5 200.21875 343.210938 200.753906 343.890625 201.324219 C 344.574219 201.894531 345.226562 202.496094 345.847656 203.132812 C 346.472656 203.765625 347.0625 204.429688 347.621094 205.121094 C 348.179688 205.8125 348.703125 206.53125 349.191406 207.273438 C 349.675781 208.015625 350.128906 208.78125 350.539062 209.570312 C 350.953125 210.359375 351.324219 211.164062 351.660156 211.988281 C 351.992188 212.8125 352.285156 213.648438 352.535156 214.503906 C 352.789062 215.355469 352.996094 216.21875 353.164062 217.09375 C 353.332031 217.964844 353.453125 218.84375 353.535156 219.730469 C 353.613281 220.613281 353.652344 221.503906 353.644531 222.390625 L 353.644531 249.84375 L 349.125 249.84375 C 348.207031 249.84375 347.296875 249.933594 346.398438 250.113281 C 345.5 250.292969 344.628906 250.558594 343.78125 250.910156 C 342.933594 251.261719 342.128906 251.691406 341.367188 252.203125 C 340.605469 252.710938 339.898438 253.289062 339.25 253.9375 C 338.601562 254.585938 338.023438 255.292969 337.515625 256.054688 C 337.003906 256.816406 336.574219 257.621094 336.222656 258.46875 C 335.871094 259.316406 335.605469 260.1875 335.425781 261.085938 C 335.246094 261.984375 335.15625 262.894531 335.15625 263.8125 L 335.15625 280.3125 L 54.84375 280.3125 L 54.84375 263.8125 C 54.84375 262.894531 54.753906 261.984375 54.574219 261.085938 C 54.394531 260.1875 54.128906 259.316406 53.777344 258.46875 C 53.425781 257.621094 52.996094 256.816406 52.484375 256.054688 C 51.976562 255.292969 51.398438 254.585938 50.75 253.9375 C 50.101562 253.289062 49.394531 252.710938 48.632812 252.203125 C 47.871094 251.691406 47.066406 251.261719 46.21875 250.910156 C 45.371094 250.558594 44.5 250.292969 43.601562 250.113281 C 42.703125 249.933594 41.792969 249.84375 40.875 249.84375 L 30.261719 249.84375 Z M 335.15625 292.5 L 335.15625 335.15625 L 54.84375 335.15625 L 54.84375 292.5 Z M 12.1875 335.15625 L 12.1875 263.8125 C 12.1875 263.574219 12.234375 263.347656 12.324219 263.128906 C 12.414062 262.910156 12.542969 262.71875 12.707031 262.550781 C 12.875 262.386719 13.066406 262.257812 13.285156 262.167969 C 13.503906 262.078125 13.730469 262.03125 13.96875 262.03125 L 40.875 262.03125 C 41.113281 262.03125 41.339844 262.078125 41.558594 262.167969 C 41.777344 262.257812 41.96875 262.386719 42.136719 262.550781 C 42.300781 262.71875 42.429688 262.910156 42.519531 263.128906 C 42.609375 263.347656 42.65625 263.574219 42.65625 263.8125 L 42.65625 335.15625 Z M 359.53125 356.855469 C 359.53125 357.210938 359.460938 357.550781 359.324219 357.878906 C 359.191406 358.207031 358.996094 358.496094 358.746094 358.746094 C 358.496094 358.996094 358.207031 359.191406 357.878906 359.324219 C 357.550781 359.460938 357.210938 359.53125 356.855469 359.53125 L 33.144531 359.53125 C 32.789062 359.53125 32.449219 359.460938 32.121094 359.324219 C 31.792969 359.191406 31.503906 358.996094 31.253906 358.746094 C 31.003906 358.496094 30.808594 358.207031 30.675781 357.878906 C 30.539062 357.550781 30.46875 357.210938 30.46875 356.855469 L 30.46875 347.34375 L 359.53125 347.34375 Z M 377.8125 335.15625 L 347.34375 335.15625 L 347.34375 263.8125 C 347.34375 263.574219 347.390625 263.347656 347.480469 263.128906 C 347.570312 262.910156 347.699219 262.71875 347.863281 262.550781 C 348.03125 262.386719 348.222656 262.257812 348.441406 262.167969 C 348.660156 262.078125 348.886719 262.03125 349.125 262.03125 L 376.03125 262.03125 C 376.269531 262.03125 376.496094 262.078125 376.714844 262.167969 C 376.933594 262.257812 377.125 262.386719 377.292969 262.550781 C 377.457031 262.71875 377.585938 262.910156 377.675781 263.128906 C 377.765625 263.347656 377.8125 263.574219 377.8125 263.8125 Z M 377.8125 335.15625 " fill-opacity="1" fill-rule="nonzero"/><path fill="#a26d23" d="M 85.3125 207.1875 L 97.5 207.1875 L 97.5 219.375 L 85.3125 219.375 Z M 85.3125 207.1875 " fill-opacity="1" fill-rule="nonzero"/><path fill="#a26d23" d="M 85.3125 243.75 L 97.5 243.75 L 97.5 255.9375 L 85.3125 255.9375 Z M 85.3125 243.75 " fill-opacity="1" fill-rule="nonzero"/><path fill="#a26d23" d="M 292.5 207.1875 L 304.6875 207.1875 L 304.6875 219.375 L 292.5 219.375 Z M 292.5 207.1875 " fill-opacity="1" fill-rule="nonzero"/><path fill="#a26d23" d="M 292.5 243.75 L 304.6875 243.75 L 304.6875 255.9375 L 292.5 255.9375 Z M 292.5 243.75 " fill-opacity="1" fill-rule="nonzero"/><path fill="#a26d23" d="M 188.90625 207.1875 L 201.09375 207.1875 L 201.09375 219.375 L 188.90625 219.375 Z M 188.90625 207.1875 " fill-opacity="1" fill-rule="nonzero"/><path fill="#a26d23" d="M 188.90625 243.75 L 201.09375 243.75 L 201.09375 255.9375 L 188.90625 255.9375 Z M 188.90625 243.75 " fill-opacity="1" fill-rule="nonzero"/><path fill="#a26d23" d="M 158.4375 164.53125 L 359.53125 164.53125 C 359.929688 164.53125 360.328125 164.492188 360.71875 164.414062 C 361.113281 164.335938 361.492188 164.21875 361.863281 164.066406 C 362.234375 163.914062 362.585938 163.726562 362.917969 163.503906 C 363.25 163.28125 363.558594 163.03125 363.839844 162.746094 C 364.125 162.464844 364.375 162.15625 364.597656 161.824219 C 364.820312 161.492188 365.007812 161.140625 365.160156 160.769531 C 365.3125 160.398438 365.429688 160.019531 365.507812 159.625 C 365.585938 159.234375 365.625 158.835938 365.625 158.4375 L 365.625 30.46875 C 365.625 30.070312 365.585938 29.671875 365.507812 29.28125 C 365.429688 28.886719 365.3125 28.507812 365.160156 28.136719 C 365.007812 27.765625 364.820312 27.414062 364.597656 27.082031 C 364.375 26.75 364.125 26.441406 363.839844 26.160156 C 363.558594 25.875 363.25 25.625 362.917969 25.402344 C 362.585938 25.179688 362.234375 24.992188 361.863281 24.839844 C 361.492188 24.6875 361.113281 24.570312 360.71875 24.492188 C 360.328125 24.414062 359.929688 24.375 359.53125 24.375 L 158.4375 24.375 C 158.039062 24.375 157.640625 24.414062 157.25 24.492188 C 156.855469 24.570312 156.476562 24.6875 156.105469 24.839844 C 155.734375 24.992188 155.382812 25.179688 155.050781 25.402344 C 154.71875 25.625 154.410156 25.875 154.128906 26.160156 C 153.84375 26.441406 153.59375 26.75 153.371094 27.082031 C 153.148438 27.414062 152.960938 27.765625 152.808594 28.136719 C 152.65625 28.507812 152.539062 28.886719 152.460938 29.28125 C 152.382812 29.671875 152.34375 30.070312 152.34375 30.46875 L 152.34375 158.4375 C 152.34375 158.835938 152.382812 159.234375 152.460938 159.625 C 152.539062 160.019531 152.65625 160.398438 152.808594 160.769531 C 152.960938 161.140625 153.148438 161.492188 153.371094 161.824219 C 153.59375 162.15625 153.84375 162.464844 154.128906 162.746094 C 154.410156 163.03125 154.71875 163.28125 155.050781 163.503906 C 155.382812 163.726562 155.734375 163.914062 156.105469 164.066406 C 156.476562 164.21875 156.855469 164.335938 157.25 164.414062 C 157.640625 164.492188 158.039062 164.53125 158.4375 164.53125 Z M 164.53125 36.5625 L 353.4375 36.5625 L 353.4375 152.34375 L 164.53125 152.34375 Z M 164.53125 36.5625 " fill-opacity="1" fill-rule="nonzero"/><path fill="#a26d23" d="M 341.25 42.65625 L 176.71875 42.65625 C 176.320312 42.65625 175.921875 42.695312 175.53125 42.773438 C 175.136719 42.851562 174.757812 42.96875 174.386719 43.121094 C 174.015625 43.273438 173.664062 43.460938 173.332031 43.683594 C 173 43.90625 172.691406 44.15625 172.410156 44.441406 C 172.125 44.722656 171.875 45.03125 171.652344 45.363281 C 171.429688 45.695312 171.242188 46.046875 171.089844 46.417969 C 170.9375 46.789062 170.820312 47.167969 170.742188 47.5625 C 170.664062 47.953125 170.625 48.351562 170.625 48.75 L 170.625 140.15625 C 170.625 140.554688 170.664062 140.953125 170.742188 141.34375 C 170.820312 141.738281 170.9375 142.117188 171.089844 142.488281 C 171.242188 142.859375 171.429688 143.210938 171.652344 143.542969 C 171.875 143.875 172.125 144.183594 172.410156 144.464844 C 172.691406 144.75 173 145 173.332031 145.222656 C 173.664062 145.445312 174.015625 145.632812 174.386719 145.785156 C 174.757812 145.9375 175.136719 146.054688 175.53125 146.132812 C 175.921875 146.210938 176.320312 146.25 176.71875 146.25 L 341.25 146.25 C 341.648438 146.25 342.046875 146.210938 342.4375 146.132812 C 342.832031 146.054688 343.210938 145.9375 343.582031 145.785156 C 343.953125 145.632812 344.304688 145.445312 344.636719 145.222656 C 344.96875 145 345.277344 144.75 345.558594 144.464844 C 345.84375 144.183594 346.09375 143.875 346.316406 143.542969 C 346.539062 143.210938 346.726562 142.859375 346.878906 142.488281 C 347.03125 142.117188 347.148438 141.738281 347.226562 141.34375 C 347.304688 140.953125 347.34375 140.554688 347.34375 140.15625 L 347.34375 48.75 C 347.34375 48.351562 347.304688 47.953125 347.226562 47.5625 C 347.148438 47.167969 347.03125 46.789062 346.878906 46.417969 C 346.726562 46.046875 346.539062 45.695312 346.316406 45.363281 C 346.09375 45.03125 345.84375 44.722656 345.558594 44.441406 C 345.277344 44.15625 344.96875 43.90625 344.636719 43.683594 C 344.304688 43.460938 343.953125 43.273438 343.582031 43.121094 C 343.210938 42.96875 342.832031 42.851562 342.4375 42.773438 C 342.046875 42.695312 341.648438 42.65625 341.25 42.65625 Z M 335.15625 134.0625 L 182.8125 134.0625 L 182.8125 54.84375 L 335.15625 54.84375 Z M 335.15625 134.0625 " fill-opacity="1" fill-rule="nonzero"/></svg>