<svg xmlns="http://www.w3.org/2000/svg" xmlns:xlink="http://www.w3.org/1999/xlink" width="520" zoomAndPan="magnify" viewBox="0 0 390 389.999986" height="520" preserveAspectRatio="xMidYMid meet" version="1.0"><path fill="#a26d23" d="M 109.6875 42.65625 L 121.875 42.65625 L 121.875 60.9375 L 109.6875 60.9375 Z M 109.6875 42.65625 " fill-opacity="1" fill-rule="nonzero"/><path fill="#a26d23" d="M 152.34375 42.65625 L 164.53125 42.65625 L 164.53125 60.9375 L 152.34375 60.9375 Z M 152.34375 42.65625 " fill-opacity="1" fill-rule="nonzero"/><path fill="#a26d23" d="M 274.21875 0 L 6.09375 0 C 5.695312 0 5.296875 0.0390625 4.90625 0.117188 C 4.511719 0.195312 4.132812 0.3125 3.761719 0.464844 C 3.390625 0.617188 3.039062 0.804688 2.707031 1.027344 C 2.375 1.25 2.066406 1.5 1.785156 1.785156 C 1.5 2.066406 1.25 2.375 1.027344 2.707031 C 0.804688 3.039062 0.617188 3.390625 0.464844 3.761719 C 0.3125 4.132812 0.195312 4.511719 0.117188 4.90625 C 0.0390625 5.296875 0 5.695312 0 6.09375 L 0 383.90625 C 0 384.304688 0.0390625 384.703125 0.117188 385.09375 C 0.195312 385.488281 0.3125 385.867188 0.464844 386.238281 C 0.617188 386.609375 0.804688 386.960938 1.027344 387.292969 C 1.25 387.625 1.5 387.933594 1.785156 388.214844 C 2.066406 388.496094 2.375 388.75 2.707031 388.972656 C 3.039062 389.195312 3.390625 389.382812 3.761719 389.535156 C 4.132812 389.6875 4.511719 389.804688 4.90625 389.882812 C 5.296875 389.960938 5.695312 390 6.09375 390 L 274.21875 390 C 274.617188 390 275.015625 389.960938 275.40625 389.882812 C 275.800781 389.804688 276.179688 389.6875 276.550781 389.535156 C 276.921875 389.382812 277.273438 389.195312 277.605469 388.972656 C 277.9375 388.75 278.246094 388.496094 278.527344 388.214844 C 278.8125 387.933594 279.0625 387.625 279.285156 387.292969 C 279.507812 386.960938 279.695312 386.609375 279.847656 386.238281 C 280 385.867188 280.117188 385.488281 280.195312 385.09375 C 280.273438 384.703125 280.3125 384.304688 280.3125 383.90625 L 280.3125 6.09375 C 280.3125 5.695312 280.273438 5.296875 280.195312 4.90625 C 280.117188 4.511719 280 4.132812 279.847656 3.761719 C 279.695312 3.390625 279.507812 3.039062 279.285156 2.707031 C 279.0625 2.375 278.8125 2.066406 278.527344 1.785156 C 278.246094 1.5 277.9375 1.25 277.605469 1.027344 C 277.273438 0.804688 276.921875 0.617188 276.550781 0.464844 C 276.179688 0.3125 275.800781 0.195312 275.40625 0.117188 C 275.015625 0.0390625 274.617188 0 274.21875 0 Z M 12.1875 12.1875 L 134.0625 12.1875 L 134.0625 91.40625 L 12.1875 91.40625 Z M 67.03125 377.8125 L 12.1875 377.8125 L 12.1875 262.03125 L 67.03125 262.03125 Z M 201.09375 377.8125 L 79.21875 377.8125 L 79.21875 347.34375 L 201.09375 347.34375 Z M 201.09375 335.15625 L 79.21875 335.15625 L 79.21875 304.6875 L 201.09375 304.6875 Z M 201.09375 292.5 L 79.21875 292.5 L 79.21875 262.03125 L 201.09375 262.03125 Z M 124.429688 217.96875 L 48.75 217.96875 L 48.75 121.875 L 231.5625 121.875 L 231.5625 217.96875 Z M 149.789062 230.15625 L 149.789062 243.75 L 130.523438 243.75 L 130.523438 230.15625 Z M 268.125 377.8125 L 213.28125 377.8125 L 213.28125 262.03125 L 268.125 262.03125 Z M 268.125 249.84375 L 187.335938 249.84375 L 187.335938 243.75 L 161.976562 243.75 L 161.976562 230.15625 L 237.65625 230.15625 C 238.054688 230.15625 238.453125 230.117188 238.84375 230.039062 C 239.238281 229.960938 239.617188 229.84375 239.988281 229.691406 C 240.359375 229.539062 240.710938 229.351562 241.042969 229.128906 C 241.375 228.90625 241.683594 228.652344 241.964844 228.371094 C 242.25 228.085938 242.5 227.777344 242.722656 227.445312 C 242.945312 227.113281 243.132812 226.761719 243.285156 226.394531 C 243.4375 226.023438 243.554688 225.640625 243.632812 225.25 C 243.710938 224.859375 243.75 224.460938 243.75 224.0625 L 243.75 115.78125 C 243.75 115.382812 243.710938 114.984375 243.632812 114.59375 C 243.554688 114.199219 243.4375 113.820312 243.285156 113.449219 C 243.132812 113.078125 242.945312 112.726562 242.722656 112.394531 C 242.5 112.0625 242.25 111.753906 241.964844 111.472656 C 241.683594 111.1875 241.375 110.9375 241.042969 110.714844 C 240.710938 110.492188 240.359375 110.304688 239.988281 110.152344 C 239.617188 110 239.238281 109.882812 238.84375 109.804688 C 238.453125 109.726562 238.054688 109.6875 237.65625 109.6875 L 42.65625 109.6875 C 42.257812 109.6875 41.859375 109.726562 41.46875 109.804688 C 41.074219 109.882812 40.695312 110 40.324219 110.152344 C 39.953125 110.304688 39.601562 110.492188 39.269531 110.714844 C 38.9375 110.9375 38.628906 111.1875 38.347656 111.472656 C 38.0625 111.753906 37.8125 112.0625 37.589844 112.394531 C 37.367188 112.726562 37.179688 113.078125 37.027344 113.449219 C 36.875 113.820312 36.757812 114.199219 36.679688 114.59375 C 36.601562 114.984375 36.5625 115.382812 36.5625 115.78125 L 36.5625 224.0625 C 36.5625 224.460938 36.601562 224.859375 36.679688 225.25 C 36.757812 225.640625 36.875 226.023438 37.027344 226.394531 C 37.179688 226.761719 37.367188 227.113281 37.589844 227.445312 C 37.8125 227.777344 38.0625 228.085938 38.347656 228.371094 C 38.628906 228.652344 38.9375 228.90625 39.269531 229.128906 C 39.601562 229.351562 39.953125 229.539062 40.324219 229.691406 C 40.695312 229.84375 41.074219 229.960938 41.46875 230.039062 C 41.859375 230.117188 42.257812 230.15625 42.65625 230.15625 L 118.335938 230.15625 L 118.335938 243.75 L 92.976562 243.75 L 92.976562 249.84375 L 12.1875 249.84375 L 12.1875 103.59375 L 268.125 103.59375 Z M 268.125 91.40625 L 146.25 91.40625 L 146.25 12.1875 L 268.125 12.1875 Z M 268.125 91.40625 " fill-opacity="1" fill-rule="nonzero"/><path fill="#a26d23" d="M 219.375 304.6875 L 231.5625 304.6875 L 231.5625 329.0625 L 219.375 329.0625 Z M 219.375 304.6875 " fill-opacity="1" fill-rule="nonzero"/><path fill="#a26d23" d="M 389.390625 199.265625 L 368.34375 132.234375 C 368.148438 131.617188 367.863281 131.042969 367.484375 130.515625 C 367.109375 129.988281 366.65625 129.53125 366.132812 129.148438 C 365.613281 128.765625 365.042969 128.472656 364.425781 128.269531 C 363.808594 128.070312 363.179688 127.96875 362.53125 127.96875 L 307.808594 127.96875 C 307.160156 127.96875 306.527344 128.070312 305.910156 128.269531 C 305.292969 128.472656 304.726562 128.765625 304.203125 129.148438 C 303.679688 129.53125 303.230469 129.988281 302.851562 130.515625 C 302.472656 131.042969 302.1875 131.617188 301.992188 132.234375 L 280.921875 199.265625 C 280.777344 199.722656 280.691406 200.1875 280.65625 200.667969 C 280.621094 201.144531 280.644531 201.617188 280.722656 202.089844 C 280.800781 202.5625 280.933594 203.019531 281.121094 203.460938 C 281.304688 203.902344 281.539062 204.316406 281.824219 204.703125 C 282.105469 205.085938 282.429688 205.433594 282.796875 205.742188 C 283.164062 206.054688 283.558594 206.316406 283.984375 206.53125 C 284.414062 206.746094 284.859375 206.910156 285.324219 207.023438 C 285.789062 207.132812 286.261719 207.1875 286.742188 207.1875 L 329.0625 207.1875 L 329.0625 377.8125 L 304.6875 377.8125 L 304.6875 390 L 365.625 390 L 365.625 377.8125 L 341.25 377.8125 L 341.25 207.1875 L 383.546875 207.1875 C 384.023438 207.1875 384.496094 207.132812 384.964844 207.023438 C 385.429688 206.910156 385.875 206.746094 386.300781 206.53125 C 386.730469 206.316406 387.125 206.054688 387.492188 205.742188 C 387.855469 205.433594 388.179688 205.085938 388.464844 204.703125 C 388.746094 204.316406 388.980469 203.902344 389.167969 203.460938 C 389.355469 203.019531 389.488281 202.5625 389.566406 202.089844 C 389.644531 201.617188 389.664062 201.144531 389.632812 200.667969 C 389.597656 200.1875 389.511719 199.722656 389.367188 199.265625 Z M 295.066406 195 L 312.28125 140.15625 L 358.03125 140.15625 L 375.246094 195 Z M 295.066406 195 " fill-opacity="1" fill-rule="nonzero"/><path fill="#a26d23" d="M 48.75 304.6875 L 60.9375 304.6875 L 60.9375 329.0625 L 48.75 329.0625 Z M 48.75 304.6875 " fill-opacity="1" fill-rule="nonzero"/></svg>