<svg xmlns="http://www.w3.org/2000/svg" xmlns:xlink="http://www.w3.org/1999/xlink" width="520" zoomAndPan="magnify" viewBox="0 0 390 389.999986" height="520" preserveAspectRatio="xMidYMid meet" version="1.0"><path fill="#a26d23" d="M 7.800781 117 L 7.800781 351 L 23.398438 351 L 23.398438 382.199219 L 70.199219 382.199219 L 70.199219 351 L 319.800781 351 L 319.800781 382.199219 L 366.601562 382.199219 L 366.601562 351 L 382.199219 351 L 382.199219 7.800781 L 7.800781 7.800781 Z M 54.601562 366.601562 L 39 366.601562 L 39 351 L 54.601562 351 Z M 351 366.601562 L 335.398438 366.601562 L 335.398438 351 L 351 351 Z M 366.601562 335.398438 L 23.398438 335.398438 L 23.398438 241.800781 L 366.601562 241.800781 Z M 366.601562 226.199219 L 23.398438 226.199219 L 23.398438 132.601562 L 366.601562 132.601562 Z M 23.398438 23.398438 L 366.601562 23.398438 L 366.601562 117 L 23.398438 117 Z M 23.398438 23.398438 " fill-opacity="1" fill-rule="nonzero"/><path fill="#a26d23" d="M 234 78 L 156 78 L 156 62.398438 L 140.398438 62.398438 L 140.398438 93.601562 L 249.601562 93.601562 L 249.601562 62.398438 L 234 62.398438 Z M 234 78 " fill-opacity="1" fill-rule="nonzero"/><path fill="#a26d23" d="M 249.601562 171.601562 L 234 171.601562 L 234 187.199219 L 156 187.199219 L 156 171.601562 L 140.398438 171.601562 L 140.398438 202.800781 L 249.601562 202.800781 Z M 249.601562 171.601562 " fill-opacity="1" fill-rule="nonzero"/><path fill="#a26d23" d="M 249.601562 280.800781 L 234 280.800781 L 234 296.398438 L 156 296.398438 L 156 280.800781 L 140.398438 280.800781 L 140.398438 312 L 249.601562 312 Z M 249.601562 280.800781 " fill-opacity="1" fill-rule="nonzero"/></svg>